# xmcd
#
# Track frame offsets:
#   150
#   25227
#   46872
#   69537
#   93960
#   117465
#   139577
#   160105
#   183225
#   208660
#   229247
#
# Disc length: 3416 seconds
#
# Revision: 1
# Processed by: cddbd v1.5PL3 Copyright (c) Steve Scherf et al.
# Submitted via: Media_Universe 3.0
#
DISCID=900d560b
DTITLE=Gerald Alston and Blue Lovett - The Manhattans... Even Now ...
DYEAR=2001
DGENRE=Blues
TTITLE0=Love Me Right
TTITLE1=Turn Out The Stars
TTITLE2=Nights Like This
TTITLE3=Even Now
TTITLE4=Everyday People
TTITLE5=Let's Try Love (with Peggy Blu)
TTITLE6=Any Other Way
TTITLE7=How Much More?
TTITLE8=I Got It Right
TTITLE9=Lover's Lullaby
TTITLE10=Can You Take It?
EXTD=YEAR: 2001 ID3G: 0
EXTT0=
EXTT1=
EXTT2=
EXTT3=
EXTT4=
EXTT5=
EXTT6=
EXTT7=
EXTT8=
EXTT9=
EXTT10=
PLAYORDER=
